<svg width="151" height="150" viewBox="0 0 151 150" fill="none" xmlns="http://www.w3.org/2000/svg">
<path d="M80.1875 11.7188H19.25C15.3668 11.7188 12.2188 14.8667 12.2188 18.7499V74.9993C12.2188 78.8825 15.3668 82.0305 19.25 82.0305H27.9554L36.2413 91.4361C37.6693 93.057 40.3438 92.047 40.3438 89.8868V82.0305H80.1875C84.0707 82.0305 87.2188 78.8825 87.2188 74.9993V18.7499C87.2188 14.8667 84.0707 11.7188 80.1875 11.7188Z" fill="#E6E9EF"/>
<path d="M19.25 82.0304H27.9553L36.2413 91.4359C37.6693 93.0569 40.3437 92.0469 40.3437 89.8867V82.0304H80.1875C84.0707 82.0304 87.2187 78.8825 87.2187 74.9992V71.0318C76.0373 67.0597 62.6402 62.5785 56.4635 61.5729C52.856 60.9856 49.7399 61.7195 47.1583 63.0101C32.1187 70.5282 14.037 61.3287 12.2792 44.607C12.233 44.1682 12.2188 43.9262 12.2188 43.9262V74.9992C12.2188 78.8824 15.3667 82.0304 19.25 82.0304Z" fill="#C2CBDA"/>
<path d="M54.4468 81.3892L53.3764 81.1184C48.0558 79.7725 44.8337 74.3683 46.1796 69.0478C47.5255 63.7272 52.9298 60.5051 58.2504 61.851L59.3208 62.1218L54.4468 81.3892ZM97.0634 100.891C97.0634 100.891 99.0925 108.627 91.8482 113.628C98.8919 117.298 105.16 116.157 105.16 116.157L110.625 102.433L97.0634 100.891Z" fill="#1E88E5"/>
<path d="M107.769 138.156L98.0114 135.688C95.5956 135.077 94.3068 132.443 95.3067 130.16L109.567 97.6103L125.298 101.589L112.534 135.661C111.813 137.585 109.761 138.66 107.769 138.156Z" fill="#E6E9EF"/>
<path d="M101.149 116.824C105.752 115.406 111.963 114.509 120.168 115.284L125.298 101.589L109.567 97.6102L101.149 116.824Z" fill="#C2CBDA"/>
<path d="M132.387 71.6033C115.211 66.7431 92.653 56.3618 76.0921 44.8632L60.9944 104.547C81.0308 102.306 105.812 103.899 123.233 107.791C127.889 108.831 132.511 105.96 133.681 101.334L138.509 82.251C139.679 77.6256 136.978 72.9021 132.387 71.6033Z" fill="#64B5F6"/>
<path d="M133.369 102.202C115.344 96.0928 98.0114 95.0981 87.2188 93.749C68.4688 91.4053 69.9701 77.774 70.0693 68.6726L60.9944 104.547C81.0308 102.306 105.812 103.899 123.233 107.791C127.583 108.763 131.865 106.298 133.369 102.202Z" fill="#1071C6"/>
<path d="M109.862 105.451C114.618 106.092 119.134 106.875 123.233 107.791C127.889 108.831 132.511 105.96 133.681 101.334L138.509 82.251C139.679 77.6256 136.978 72.9021 132.387 71.6032C128.346 70.4597 124.001 69.0009 119.512 67.3035L109.862 105.451Z" fill="#F2B705"/>
<path d="M133.369 102.202C126.005 99.7061 118.758 98.064 112.024 96.9026L109.862 105.451C114.618 106.092 119.134 106.875 123.233 107.791C127.583 108.763 131.865 106.298 133.369 102.202Z" fill="#C99703"/>
<path d="M64.8847 40.12L48.8799 103.389C48.0654 106.609 50.0149 109.879 53.2343 110.694C56.4537 111.508 59.7239 109.558 60.5385 106.338L76.5432 43.0692C77.3578 39.8492 75.4083 36.5786 72.1888 35.7642C68.9694 34.9498 65.6992 36.9 64.8847 40.12Z" fill="#E6E9EF"/>
<path d="M48.3134 54.7852C48.0845 54.7852 47.8534 54.7474 47.6268 54.6661C44.102 53.4142 40.5887 51.0796 37.5308 48.2357C34.4752 51.0796 30.9619 53.4142 27.4371 54.6661C26.3728 55.0438 25.1964 54.4888 24.8187 53.421C24.4387 52.3544 24.9972 51.1814 26.0638 50.8026C29.0942 49.7246 32.0857 47.7035 34.6858 45.29C30.2752 40.21 27.4714 34.2728 28.2153 29.9515C28.6158 27.6283 30.3599 23.7305 37.5308 23.7305C44.7039 23.7305 46.4457 27.6283 46.8463 29.9526C47.5924 34.2728 44.7886 40.21 40.3781 45.29C42.9782 47.7036 45.9674 49.7246 49 50.8026C50.0666 51.1814 50.6251 52.3545 50.2452 53.421C49.9476 54.261 49.1557 54.7852 48.3134 54.7852ZM37.5308 27.832C32.7449 27.832 32.3787 29.9515 32.2573 30.6484C31.7607 33.5266 33.9854 38.1443 37.5308 42.3168C41.0784 38.1443 43.3009 33.5266 42.8042 30.6496C42.6852 29.9526 42.319 27.832 37.5308 27.832Z" fill="#F2B705"/>
<path d="M125.126 110.051C124.353 110.051 123.57 109.966 122.787 109.788C107.651 106.407 87.4225 104.899 70.0114 105.849C68.9013 105.928 67.9126 105.045 67.8508 103.914C67.789 102.783 68.6564 101.816 69.7871 101.754C87.5483 100.784 108.205 102.327 123.689 105.787C127.223 106.587 130.789 104.366 131.686 100.838L136.511 81.7394C137.417 78.17 135.355 74.5835 131.819 73.5729C113.673 68.4471 90.803 57.5935 74.9164 46.5672C73.9871 45.9217 73.7559 44.6434 74.4014 43.713C75.0491 42.786 76.324 42.5549 77.2555 43.198C92.8034 53.9898 115.181 64.6111 132.94 69.627C138.628 71.2521 141.942 77.0142 140.486 82.7465L135.662 101.846C134.421 106.73 129.958 110.051 125.126 110.051Z" fill="black"/>
<path d="M54.7107 112.929C54.0583 112.929 53.3946 112.849 52.7354 112.682C50.6457 112.154 48.8879 110.845 47.7847 108.995C46.6815 107.144 46.3633 104.976 46.8921 102.887L62.8978 39.6183C63.9895 35.3073 68.3749 32.6855 72.6939 33.7784C74.7813 34.306 76.5391 35.6152 77.6423 37.4657C78.7456 39.3162 79.0637 41.4848 78.535 43.5734L62.5293 106.842C61.6046 110.492 58.3133 112.929 54.7107 112.929ZM70.7164 37.6328C68.9448 37.6328 67.3289 38.831 66.8757 40.6243L50.87 103.893C50.6091 104.919 50.7647 105.985 51.3072 106.894C51.8496 107.803 52.7125 108.447 53.7379 108.706C55.8619 109.24 58.0157 107.954 58.5513 105.836L74.557 42.5675C74.8179 41.5409 74.6623 40.4755 74.1198 39.5668C73.5774 38.657 72.7145 38.0139 71.6891 37.7541C71.3641 37.6728 71.0368 37.6328 70.7164 37.6328ZM109.864 107.502C109.697 107.502 109.528 107.483 109.358 107.439C108.262 107.162 107.596 106.047 107.873 104.949L117.523 66.8003C117.802 65.7017 118.923 65.0379 120.015 65.3149C121.112 65.5918 121.778 66.7076 121.501 67.8051L111.851 105.954C111.615 106.883 110.78 107.502 109.864 107.502Z" fill="black"/>
<path d="M108.74 140.331C108.258 140.331 107.768 140.274 107.28 140.153L97.4932 137.666C95.7537 137.226 94.3049 136.049 93.5198 134.435C92.7393 132.829 92.705 130.971 93.4305 129.339L104.467 104.198C104.92 103.158 106.136 102.69 107.168 103.144C108.205 103.6 108.676 104.81 108.221 105.846L97.1819 130.995C96.8615 131.721 97.0606 132.337 97.2071 132.64C97.3581 132.948 97.7243 133.493 98.5003 133.689L108.278 136.174C109.239 136.415 110.253 135.878 110.613 134.93C111.011 133.872 112.185 133.335 113.256 133.737C114.314 134.136 114.849 135.32 114.449 136.379C113.536 138.8 111.226 140.331 108.74 140.331ZM115.644 129.416C115.403 129.416 115.161 129.374 114.923 129.285C113.863 128.887 113.325 127.705 113.723 126.644L121.086 107.021C121.485 105.96 122.666 105.421 123.728 105.821C124.787 106.219 125.325 107.402 124.927 108.463L117.564 128.086C117.255 128.909 116.474 129.416 115.644 129.416ZM54.4497 83.44C54.2826 83.44 54.1132 83.4205 53.9438 83.377L52.8727 83.1058C49.769 82.3208 47.1552 80.3741 45.5164 77.6229C43.8776 74.8729 43.4061 71.6491 44.1912 68.5455C45.8117 62.1345 52.3371 58.2355 58.7549 59.8629L59.8238 60.1341C60.9224 60.4122 61.5862 61.528 61.307 62.6266C61.0323 63.7241 59.9131 64.3856 58.8167 64.1098L57.7479 63.8385C53.5113 62.7662 49.2335 65.3354 48.1692 69.5503C47.6519 71.593 47.9609 73.7148 49.0389 75.5229C50.1169 77.3323 51.8358 78.6129 53.8798 79.1301L54.9509 79.4013C56.0496 79.6794 56.7133 80.7941 56.4364 81.8927C56.2006 82.822 55.3652 83.44 54.4497 83.44Z" fill="black"/>
<path d="M101.4 118.323C101.361 118.323 101.322 118.322 101.281 118.319C98.7933 118.179 94.9733 117.564 90.9106 115.441C90.272 115.108 89.8555 114.464 89.8143 113.746C89.7708 113.028 90.1073 112.339 90.7024 111.932C94.2477 109.503 95.1312 106.304 95.2479 104.049C95.3074 102.918 96.3603 102.095 97.4017 102.107C98.5347 102.166 99.4022 103.13 99.3449 104.261C99.2145 106.769 98.4203 110.097 95.6737 113.048C97.9693 113.854 100.025 114.14 101.515 114.225C102.645 114.289 103.511 115.257 103.447 116.388C103.385 117.479 102.478 118.323 101.4 118.323ZM37.9863 94.2776C36.7549 94.2776 35.5624 93.7569 34.7064 92.7876L27.0205 84.0809H19.25C14.2421 84.0809 10.168 80.0068 10.168 74.9989V18.75C10.168 13.7421 14.2421 9.66797 19.25 9.66797H80.1875C85.1954 9.66797 89.2695 13.7421 89.2695 18.75V42.5617C89.2695 43.6947 88.3517 44.6125 87.2188 44.6125C86.0858 44.6125 85.168 43.6947 85.168 42.5617V18.75C85.168 16.0034 82.9341 13.7695 80.1875 13.7695H19.25C16.5034 13.7695 14.2695 16.0034 14.2695 18.75V74.9988C14.2695 77.7454 16.5034 79.9793 19.25 79.9793H27.9452C28.5335 79.9793 29.0942 80.2322 29.4833 80.6728L37.7803 90.0719C37.8237 90.1211 37.9222 90.2206 38.1053 90.152C38.293 90.081 38.293 89.946 38.293 89.8819V82.0301C38.293 80.8971 39.2108 79.9793 40.3438 79.9793C41.4767 79.9793 42.3945 80.8971 42.3945 82.0301V89.8819C42.3945 91.7232 41.2822 93.3346 39.5587 93.9869C39.0437 94.1826 38.5104 94.2776 37.9863 94.2776Z" fill="black"/>
</svg>
