<svg width="151" height="150" viewBox="0 0 151 150" fill="none" xmlns="http://www.w3.org/2000/svg">
<path d="M94.2395 112.502C96.3739 104.761 84.544 105.621 78.2534 101.878C67.863 95.6944 55.6672 92.2507 42.6794 96.0953V131.252C42.6794 131.252 73.6192 135.734 80.18 134.854C89.5549 133.595 139.097 115.069 138.773 111.573C137.428 97.0642 94.2395 112.502 94.2395 112.502Z" fill="#FBBB9F"/>
<path d="M80.18 134.854C89.5548 133.595 139.097 115.069 138.773 111.573C138.62 109.919 85.3163 126.396 78.1118 126.086C55.0836 125.095 42.6794 115.327 42.6794 115.327V131.252C42.6794 131.252 73.6191 135.734 80.18 134.854Z" fill="#F58E81"/>
<path d="M37.9906 89.0648H16.8992C14.3103 89.0648 12.2117 91.1635 12.2117 93.7523V133.596C12.2117 136.185 14.3103 138.284 16.8992 138.284H37.9906C40.5794 138.284 42.6781 136.185 42.6781 133.596V93.7523C42.6781 91.1635 40.5794 89.0648 37.9906 89.0648Z" fill="#64B5F6"/>
<path d="M37.9918 126.564H16.8993C14.3106 126.564 12.2119 124.465 12.2119 121.877V133.595C12.2119 136.184 14.3106 138.283 16.8993 138.283H37.9918C40.5807 138.283 42.6793 136.184 42.6793 133.595V121.877C42.6793 124.465 40.5807 126.564 37.9918 126.564Z" fill="#1E88E5"/>
<path d="M105.709 12.9462C84.8683 6.41978 75.4933 28.078 75.4933 28.078C75.4933 28.078 66.1183 6.41975 45.2775 12.9462C21.5142 20.3881 17.8097 59.0574 75.4933 86.7203C133.177 59.0574 129.472 20.3881 105.709 12.9462Z" fill="#F2B705"/>
<path d="M29.4799 30.4703C26.4766 46.1518 38.0284 68.7535 75.4933 86.7203C90.5494 79.5001 101.389 71.53 108.816 63.5611C68.9214 80.4703 38.593 49.2203 29.4799 30.4703Z" fill="#C69400"/>
<path d="M37.9909 140.334H16.8994C13.1847 140.334 10.1611 137.311 10.1611 133.595V121.877C10.1611 120.744 11.0789 119.826 12.2119 119.826C13.3449 119.826 14.2627 120.744 14.2627 121.877V133.595C14.2627 135.049 15.446 136.232 16.8994 136.232H37.9909C39.4443 136.232 40.6276 135.049 40.6276 133.595V93.7516C40.6276 92.2982 39.4443 91.1149 37.9909 91.1149H16.8994C15.446 91.1149 14.2627 92.2982 14.2627 93.7516V109.103C14.2627 110.236 13.3449 111.153 12.2119 111.153C11.0789 111.153 10.1611 110.236 10.1611 109.103V93.7516C10.1611 90.0357 13.1847 87.0133 16.8994 87.0133H37.9909C41.7056 87.0133 44.7292 90.0357 44.7292 93.7516V133.595C44.7292 137.311 41.7056 140.334 37.9909 140.334ZM94.2386 114.552C93.3963 114.552 92.6067 114.031 92.3068 113.192C91.9269 112.125 92.4808 110.952 93.5474 110.571C94.2706 110.312 120.809 105.338 134 104.5C135.103 104.418 136.103 105.285 136.177 106.416C136.25 107.546 135.391 108.521 134.261 108.592C121.652 109.395 95.0992 114.372 94.9275 114.433C94.7009 114.515 94.4675 114.552 94.2386 114.552Z" fill="#040404"/>
<path d="M77.9493 137.011C68.2561 137.011 43.5392 133.449 42.3856 133.281C41.2641 133.119 40.4859 132.079 40.6484 130.957C40.8109 129.835 41.8706 129.057 42.9716 129.223C51.502 130.457 74.7632 133.519 79.9085 132.822C89.5238 131.531 131.73 115.313 136.632 111.132C136.401 110.133 135.733 109.034 133.664 108.27C132.602 107.878 132.057 106.698 132.448 105.636C132.842 104.574 134.025 104.025 135.083 104.422C139.436 106.028 140.603 109.095 140.814 111.383C140.972 113.076 141.187 115.397 113.854 125.966C101.179 130.866 85.6351 136.191 80.4533 136.887C79.8124 136.972 78.9632 137.011 77.9493 137.011Z" fill="black"/>
<path d="M81.5884 119.167C76.0678 119.167 70.023 118.149 65.4111 116.557C64.3399 116.188 63.7723 115.02 64.1408 113.95C64.5093 112.88 65.6743 112.308 66.7477 112.68C74.7998 115.46 86.2233 115.838 90.7117 113.474C91.3159 113.156 92.0758 112.634 92.2612 111.957C92.648 110.555 92.307 109.954 92.1948 109.757C91.3411 108.256 88.1413 107.38 85.0491 106.532C82.33 105.788 79.5193 105.018 77.2053 103.64C65.569 96.7167 54.1523 94.841 43.2599 98.0614C42.1658 98.3876 41.0328 97.7627 40.7124 96.6778C40.3897 95.5918 41.01 94.4508 42.0972 94.1292C54.1249 90.5713 66.6447 92.5843 79.3019 100.116C81.1398 101.209 83.6781 101.904 86.1317 102.577C90.2127 103.694 94.0648 104.749 95.7608 107.729C96.6191 109.24 96.7724 111.029 96.2163 113.047C95.7516 114.726 94.5431 116.092 92.6228 117.103C89.8785 118.549 85.8937 119.167 81.5884 119.167ZM75.4933 88.7711C75.1912 88.7711 74.8868 88.7036 74.6075 88.5697C49.3573 76.4607 32.8915 60.7216 28.2429 44.2524C25.8603 35.8067 26.8284 27.6242 30.9689 21.2132C31.5869 20.2622 32.8549 19.991 33.8048 20.6032C34.7569 21.2178 35.0293 22.4869 34.4159 23.4379C30.9208 28.8464 30.1312 35.8422 32.1911 43.1378C34.6722 51.9302 43.5986 68.9167 75.4933 84.4429C118.535 63.498 120.343 40.2207 119.862 33.5499C119.217 24.5674 113.696 17.5968 105.095 14.9029C86.3125 9.0115 77.7272 28.0819 77.3747 28.8956C76.7201 30.3902 74.2665 30.3902 73.6119 28.8956C73.2571 28.0819 64.6969 9.01492 45.8897 14.9029C44.6972 15.2771 43.546 15.7418 42.4679 16.2831C41.454 16.7889 40.2226 16.3815 39.7145 15.3698C39.2064 14.357 39.6161 13.1245 40.6277 12.6164C41.9003 11.9778 43.2576 11.4296 44.6629 10.989C61.6025 5.68356 71.6023 17.6449 75.4933 23.8431C79.3797 17.6484 89.3681 5.68241 106.321 10.989C116.436 14.1568 123.192 22.6883 123.952 33.2547C125.369 52.927 107.585 73.6054 76.3791 88.5697C76.0999 88.7036 75.7954 88.7711 75.4933 88.7711Z" fill="black"/>
<path d="M27.4462 129.548C29.1238 129.548 30.4837 128.189 30.4837 126.511C30.4837 124.833 29.1238 123.473 27.4462 123.473C25.7686 123.473 24.4087 124.833 24.4087 126.511C24.4087 128.189 25.7686 129.548 27.4462 129.548Z" fill="black"/>
</svg>
