<svg width="151" height="150" viewBox="0 0 151 150" fill="none" xmlns="http://www.w3.org/2000/svg">
<path d="M43.3076 138.282L47.9951 79.6878L40.3257 69.3586C38.5256 66.9343 37.5537 63.9949 37.5537 60.9754V18.7503C37.5537 14.8671 40.7017 11.7191 44.585 11.7191H95.0693C98.9526 11.7191 102.101 14.8671 102.101 18.7503V28.1243L106.417 28.1247C110.366 28.125 113.541 31.378 113.445 35.3267L112.909 57.3868C112.784 62.5218 110.559 67.3807 106.751 70.8288L99.5576 77.3441L104.245 138.282L43.3076 138.282Z" fill="#FBBB9F"/>
<path d="M37.5537 41.2979C37.5537 41.2979 42.7092 51.2168 55.062 54.2722C67.4147 57.3275 71.4326 60.9378 73.7764 67.9691C73.7764 67.9691 79.6649 47.2456 100.627 45.5856C100.627 45.5856 90.1364 43.2382 86.3623 39.7972C86.3623 39.7972 84.7454 45.6449 78.5811 45.3987C72.4168 45.1526 70.5239 38.7357 70.5239 38.7357C70.5239 38.7357 68.8083 46.0238 62.1656 45.3994C55.523 44.7751 53.9625 39.2067 53.9625 39.2067C53.9625 39.2067 48.2061 50.7513 37.5537 41.2979Z" fill="#F58E81"/>
<path d="M101.746 102.159L45.2973 90.3601C44.1568 90.0993 43.3834 89.0373 43.485 87.8717L43.8802 82.2281C44.0029 80.8217 45.332 79.8421 46.7118 80.1413L102.455 92.2292C103.483 92.4523 104.237 93.3335 104.298 94.3841L104.608 99.7386C104.699 101.297 103.268 102.507 101.746 102.159Z" fill="#F2B705"/>
<path d="M103.034 116.039L43.4759 113.058C42.6214 112.994 41.9844 112.258 42.0589 111.419L42.8685 103.735C42.9411 102.919 43.6629 102.308 44.496 102.358L102.821 105.841C103.599 105.887 104.219 106.498 104.265 107.263L104.689 114.444C104.742 115.358 103.964 116.109 103.034 116.039Z" fill="#F2B705"/>
<path d="M73.7777 70.0198C73.7308 70.0198 73.6839 70.0175 73.637 70.0153C72.7134 69.9512 71.9467 69.2783 71.7658 68.3719C71.6777 67.9668 69.3271 58.0539 52.4288 55.9413C51.305 55.8017 50.5073 54.7763 50.6481 53.6525C50.7877 52.5287 51.8165 51.7139 52.9369 51.8718C65.2404 53.4099 71.0139 58.7978 73.661 62.8375C78.6826 52.2815 86.499 47.4956 92.4224 45.3281C86.7954 43.227 81.7703 39.9814 80.2322 34.4356C79.6897 32.481 80.096 30.4164 81.3457 28.773C82.6309 27.0839 84.661 26.0745 86.777 26.0745H102.103C103.236 26.0745 104.154 26.9923 104.154 28.1253C104.154 29.2583 103.236 30.1761 102.103 30.1761H86.777C85.9347 30.1761 85.1245 30.5789 84.6107 31.2564C84.336 31.6181 83.9149 32.3688 84.1849 33.3415C85.4781 38.0016 90.6921 41.1624 101.092 43.5886C102.102 43.8243 102.776 44.7765 102.666 45.8064C102.555 46.8364 101.694 47.6215 100.659 47.6375C99.9377 47.6535 82.7899 48.2555 75.714 68.642C75.4256 69.4705 74.6452 70.0198 73.7777 70.0198ZM46.1688 104.496C46.1139 104.496 46.059 104.494 46.0029 104.489C44.8734 104.4 44.0322 103.411 44.1226 102.281L45.061 90.562C45.1514 89.4359 46.1276 88.5821 47.2686 88.6829C48.3981 88.7721 49.2393 89.7609 49.1489 90.8916L48.2105 102.61C48.1246 103.681 47.2274 104.496 46.1688 104.496ZM104.245 140.332H43.3078C42.7356 140.332 42.1886 140.092 41.8006 139.673C41.4127 139.252 41.2181 138.689 41.2639 138.117L43.2792 112.992C43.3696 111.864 44.387 111.015 45.4868 111.113C46.6163 111.203 47.4574 112.191 47.367 113.322L45.5291 136.231H102.031L101.122 124.375C101.036 123.246 101.881 122.26 103.01 122.175C104.148 122.077 105.125 122.93 105.212 124.063L106.29 138.126C106.334 138.694 106.138 139.257 105.75 139.675C105.362 140.094 104.816 140.332 104.245 140.332Z" fill="black"/>
<path d="M100.68 93.8785C99.6195 93.8785 98.7212 93.0614 98.6376 91.9856L97.5127 77.502C97.4635 76.8703 97.7107 76.25 98.181 75.8243L105.376 69.308C108.742 66.2547 110.743 61.8854 110.867 57.3215L111.406 35.271C111.438 33.9252 110.933 32.6503 109.987 31.6821C109.039 30.7117 107.773 30.1761 106.424 30.1761H102.112C100.979 30.1761 100.061 29.2583 100.061 28.1253V18.7503C100.061 16.0037 97.8274 13.7698 95.0808 13.7698H44.5735C41.8269 13.7698 39.593 16.0037 39.593 18.7503V60.9836C39.593 63.5333 40.4387 66.0693 41.9734 68.1247L44.958 72.1485C45.6332 73.0594 45.4421 74.3434 44.5323 75.0186C43.6259 75.6938 42.3384 75.5016 41.6644 74.5929L38.6843 70.5738C36.6267 67.8203 35.4915 64.4123 35.4915 60.9836V18.7503C35.4915 13.7424 39.5656 9.66827 44.5735 9.66827H95.0808C100.089 9.66827 104.163 13.7424 104.163 18.7503V26.0745H106.424C108.888 26.0745 111.195 27.0473 112.922 28.8165C114.647 30.5835 115.565 32.9112 115.505 35.3694L114.966 57.4268C114.813 63.1099 112.321 68.5458 108.131 72.3476L101.681 78.1886L102.728 91.6698C102.815 92.7982 101.97 93.7846 100.842 93.8716C100.788 93.8762 100.734 93.8785 100.68 93.8785Z" fill="black"/>
<path d="M86.7735 30.1761C85.6405 30.1761 84.7227 29.2583 84.7227 28.1253V11.7191C84.7227 10.5861 85.6405 9.66827 86.7735 9.66827C87.9065 9.66827 88.8243 10.5861 88.8243 11.7191V28.1253C88.8243 29.2583 87.9065 30.1761 86.7735 30.1761ZM62.1653 47.4498C56.5108 47.4498 51.9114 42.8493 51.9114 37.1959V11.742C51.9114 10.609 52.8292 9.69117 53.9622 9.69117C55.0951 9.69117 56.0129 10.609 56.0129 11.742V37.1959C56.0129 40.5879 58.7732 43.3482 62.1653 43.3482C65.5573 43.3482 68.3176 40.5879 68.3176 37.1959V11.7191C68.3176 10.5861 69.2354 9.66827 70.3684 9.66827C71.5014 9.66827 72.4192 10.5861 72.4192 11.7191V37.1959C72.4192 42.8493 67.8198 47.4498 62.1653 47.4498Z" fill="black"/>
<path d="M78.5808 47.4498C75.8091 47.4498 73.2261 46.3741 71.3058 44.4217C69.3889 42.506 68.3269 39.9356 68.3269 37.1959C68.3269 36.0629 69.2447 35.1451 70.3777 35.1451C71.5107 35.1451 72.4285 36.0629 72.4285 37.1959C72.4285 38.8393 73.0636 40.3797 74.2183 41.5332C75.373 42.7074 76.918 43.3483 78.5808 43.3483C81.2221 43.3483 83.5682 41.6568 84.4207 39.1414C84.7835 38.0679 85.9497 37.4935 87.0197 37.8551C88.0932 38.219 88.6688 39.3817 88.3049 40.4552C86.8904 44.6392 82.9822 47.4498 78.5808 47.4498ZM45.7569 47.4498C40.1023 47.4498 35.503 42.8493 35.503 37.1959C35.503 36.0629 36.4208 35.1451 37.5538 35.1451C38.6867 35.1451 39.6045 36.0629 39.6045 37.1959C39.6045 40.5879 42.3648 43.3483 45.7569 43.3483C49.1489 43.3483 51.9092 40.5879 51.9092 37.1959C51.9092 36.0629 52.827 35.1451 53.96 35.1451C55.093 35.1451 56.0108 36.0629 56.0108 37.1959C56.0108 42.8493 51.4114 47.4498 45.7569 47.4498ZM28.7567 27.8323C28.2875 27.8323 27.8148 27.6721 27.4292 27.3426L26.1623 26.2645C25.2994 25.5321 25.1953 24.2366 25.9288 23.3737C26.6658 22.5131 27.9567 22.4056 28.8196 23.1426L30.0865 24.2206C30.9493 24.953 31.0535 26.2485 30.3199 27.1114C29.9137 27.5874 29.3369 27.8323 28.7567 27.8323ZM21.865 21.973C21.3958 21.973 20.9232 21.8128 20.5375 21.4854L10.8901 13.2823C10.0273 12.5476 9.92312 11.2544 10.6567 10.3915C11.3903 9.52865 12.6846 9.42109 13.5475 10.1558L23.1948 18.3589C24.0577 19.0936 24.1619 20.3868 23.4283 21.2497C23.0232 21.7281 22.4464 21.973 21.865 21.973ZM28.7567 43.3483C28.4763 43.3483 28.1925 43.291 27.9201 43.1697L11.3811 35.7677C10.3477 35.3053 9.88423 34.0923 10.3466 33.0577C10.81 32.0232 12.0231 31.5631 13.0565 32.0232L29.5955 39.4252C30.6289 39.8876 31.0924 41.1006 30.6301 42.1352C30.289 42.8974 29.5406 43.3483 28.7567 43.3483ZM29.0885 85.7257C28.5072 85.7257 27.9304 85.4808 27.5253 85.0024C26.7917 84.1396 26.8959 82.8464 27.7588 82.1117L31.977 78.5251C32.8399 77.7927 34.1342 77.898 34.8678 78.7609C35.6014 79.6238 35.4972 80.9169 34.6344 81.6516L30.4161 85.2382C30.0304 85.5655 29.5578 85.7257 29.0885 85.7257ZM12.22 100.067C11.6386 100.067 11.0618 99.8225 10.6567 99.3442C9.92314 98.4813 10.0273 97.1881 10.8902 96.4534L21.3363 87.5728C22.2004 86.8404 23.4947 86.9434 24.2271 87.8085C24.9607 88.6714 24.8565 89.9646 23.9937 90.6993L13.5475 99.5799C13.1618 99.9072 12.6892 100.067 12.22 100.067ZM12.22 77.8934C11.4361 77.8934 10.6876 77.4425 10.3466 76.6803C9.88421 75.6457 10.3466 74.4327 11.3811 73.9703L27.9201 66.566C28.9524 66.1082 30.1677 66.566 30.6301 67.6006C31.0924 68.6351 30.6301 69.8482 29.5955 70.3105L13.0565 77.7148C12.7842 77.8362 12.5004 77.8934 12.22 77.8934ZM28.7578 56.9187H21.1155C19.9825 56.9187 19.0647 56.0008 19.0647 54.8679C19.0647 53.7349 19.9825 52.8171 21.1155 52.8171H28.7578C29.8908 52.8171 30.8086 53.7349 30.8086 54.8679C30.8086 56.0008 29.8908 56.9187 28.7578 56.9187ZM13.6825 56.9187H12.2188C11.0859 56.9187 10.168 56.0008 10.168 54.8679C10.168 53.7349 11.0859 52.8171 12.2188 52.8171H13.6825C14.8155 52.8171 15.7333 53.7349 15.7333 54.8679C15.7333 56.0008 14.8155 56.9187 13.6825 56.9187ZM122.243 27.8323C121.662 27.8323 121.085 27.5874 120.68 27.1091C119.947 26.2462 120.051 24.953 120.914 24.2183L130.948 15.6879C131.811 14.9532 133.107 15.0585 133.839 15.9236C134.572 16.7865 134.468 18.0797 133.605 18.8144L123.571 27.3448C123.185 27.6722 122.713 27.8323 122.243 27.8323ZM137.347 14.9898C136.766 14.9898 136.189 14.7449 135.784 14.2665C135.051 13.4037 135.155 12.1105 136.018 11.3758L137.453 10.1558C138.317 9.42109 139.611 9.52867 140.343 10.3916C141.077 11.2544 140.973 12.5476 140.11 13.2823L138.675 14.5023C138.289 14.8296 137.817 14.9898 137.347 14.9898ZM122.243 43.3483C121.46 43.3483 120.711 42.8974 120.37 42.1352C119.908 41.1006 120.371 39.8876 121.405 39.4252L137.944 32.0232C138.979 31.5631 140.191 32.0232 140.654 33.0577C141.116 34.0923 140.652 35.3053 139.619 35.7677L123.08 43.1697C122.808 43.291 122.524 43.3483 122.243 43.3483ZM128.334 91.1868C127.865 91.1868 127.392 91.0266 127.007 90.6993L116.366 81.6516C115.503 80.9169 115.399 79.6237 116.132 78.7608C116.865 77.898 118.159 77.7926 119.023 78.5251L129.664 87.5728C130.527 88.3075 130.631 89.6006 129.897 90.4635C129.492 90.9419 128.915 91.1868 128.334 91.1868ZM138.78 100.067C138.311 100.067 137.838 99.9072 137.453 99.5799L133.678 96.371C132.816 95.6363 132.711 94.3431 133.445 93.4802C134.179 92.615 135.473 92.512 136.336 93.2445L140.11 96.4534C140.973 97.1881 141.077 98.4813 140.343 99.3442C139.938 99.8225 139.362 100.067 138.78 100.067ZM138.78 77.8934C138.5 77.8934 138.216 77.8362 137.944 77.7148L121.405 70.3105C120.37 69.8482 119.908 68.6351 120.37 67.6006C120.834 66.566 122.045 66.1082 123.08 66.566L139.619 73.9703C140.654 74.4327 141.116 75.6457 140.654 76.6803C140.313 77.4425 139.564 77.8934 138.78 77.8934ZM131.75 56.9187H122.242C121.109 56.9187 120.192 56.0008 120.192 54.8679C120.192 53.7349 121.109 52.8171 122.242 52.8171H131.75C132.883 52.8171 133.801 53.7349 133.801 54.8679C133.801 56.0008 132.883 56.9187 131.75 56.9187ZM102.282 104.272C101.953 104.272 101.62 104.235 101.289 104.158L44.8768 92.3679C42.7127 91.8735 41.2525 89.8662 41.4425 87.6941L41.8338 82.0842C41.946 80.7933 42.5926 79.6421 43.6088 78.8936C44.625 78.1452 45.9171 77.8705 47.1473 78.136L73.8075 83.9176C74.9141 84.1579 75.6168 85.2497 75.3765 86.3575C75.1373 87.463 74.0421 88.1748 72.9377 87.9276L46.2764 82.146C46.1917 82.1209 46.1128 82.146 46.0418 82.1941C45.9709 82.2467 45.9308 82.3177 45.9228 82.407L45.5314 88.0168C45.5154 88.1954 45.6127 88.3281 45.7546 88.3624L102.166 100.152C102.294 100.184 102.383 100.164 102.457 100.097C102.531 100.035 102.566 99.953 102.561 99.8569L102.251 94.5033C102.243 94.3706 102.148 94.2607 102.017 94.231L82.1422 89.9234C81.0355 89.6831 80.3329 88.5913 80.5732 87.4835C80.8135 86.378 81.903 85.6685 83.012 85.9134L102.889 90.2232C104.812 90.6444 106.232 92.3061 106.345 94.2653L106.655 99.6188C106.737 101.013 106.171 102.329 105.106 103.231C104.299 103.913 103.307 104.272 102.282 104.272Z" fill="black"/>
<path d="M103.155 118.094C103.073 118.094 102.992 118.092 102.911 118.085L43.373 115.107C42.3521 115.032 41.4732 114.585 40.8461 113.846C40.227 113.116 39.9317 112.189 40.0164 111.239L40.829 103.521C40.9995 101.617 42.6589 100.218 44.6193 100.312L102.943 103.794C104.758 103.903 106.205 105.343 106.312 107.14L106.735 114.322C106.796 115.343 106.412 116.341 105.679 117.062C105.005 117.726 104.098 118.094 103.155 118.094ZM44.1615 111.04L102.605 113.965L102.246 107.861L44.8561 104.435L44.1615 111.04ZM44.911 103.92L44.9087 103.938C44.9099 103.931 44.9099 103.926 44.911 103.92Z" fill="black"/>
</svg>
