<svg width="151" height="150" viewBox="0 0 151 150" fill="none" xmlns="http://www.w3.org/2000/svg">
<path d="M59.7103 138.281L54.9478 127.573L43.3345 129.148L58.1774 102.539L74.5532 111.673L59.7103 138.281Z" fill="#F2B705"/>
<path d="M50.2578 116.737C54.8772 120.953 60.5405 124.024 66.8313 125.515L74.5531 111.672L58.1784 102.538L50.2578 116.737Z" fill="#F9A825"/>
<path d="M91.2897 138.281L96.0523 127.573L107.666 129.148L92.8226 102.539L76.4468 111.673L91.2897 138.281Z" fill="#F2B705"/>
<path d="M92.8217 102.538L76.447 111.672L84.1688 125.515C90.4596 124.024 96.1228 120.953 100.742 116.737L92.8217 102.538Z" fill="#F9A825"/>
<path d="M127.062 11.7188H23.9375C21.3487 11.7188 19.25 13.8174 19.25 16.4062V98.4328C19.25 101.022 21.3487 103.12 23.9375 103.12H127.062C129.651 103.12 131.75 101.022 131.75 98.4328V16.4062C131.75 13.8174 129.651 11.7188 127.062 11.7188Z" fill="#689F38"/>
<path d="M127.062 11.7188H23.9375C21.3487 11.7188 19.25 13.8174 19.25 16.4062V70.3125C19.25 72.9013 21.3487 75 23.9375 75H127.062C129.651 75 131.75 72.9013 131.75 70.3125V16.4062C131.75 13.8174 129.651 11.7188 127.062 11.7188Z" fill="#96C559"/>
<path d="M30.9688 53.9062V32.8125C36.1464 32.8125 40.3438 28.6152 40.3438 23.4375H110.656C110.656 28.6152 114.854 32.8125 120.031 32.8125V53.9062C114.854 53.9062 110.656 58.1036 110.656 63.2812H40.3438C40.3438 58.1036 36.1464 53.9062 30.9688 53.9062Z" fill="#DCEDC8"/>
<path d="M88.9274 11.7188H62.0728V103.12H88.9274V11.7188Z" fill="#F2B705"/>
<path d="M75.5 59.0133L81.4437 63.0211L88.5383 61.9875L92.1547 68.1797L98.9937 70.3266L99.5656 77.4726L104.797 82.3758L102.212 89.0625L104.797 95.7492L99.5656 100.652L98.9937 107.798L92.1547 109.945L88.5383 116.137L81.4437 115.104L75.5 119.112L69.5563 115.104L62.4617 116.137L58.8453 109.945L52.0062 107.798L51.4344 100.652L46.2031 95.7492L48.7883 89.0625L46.2031 82.3758L51.4344 77.4726L52.0062 70.3266L58.8453 68.1797L62.4617 61.9875L69.5563 63.0211L75.5 59.0133Z" fill="#F2B705"/>
<path d="M75.5 107.812C85.8553 107.812 94.25 99.4178 94.25 89.0625C94.25 78.7072 85.8553 70.3125 75.5 70.3125C65.1447 70.3125 56.75 78.7072 56.75 89.0625C56.75 99.4178 65.1447 107.812 75.5 107.812Z" fill="#F2B705"/>
<path d="M46.9767 86.4258H23.9375C20.2216 86.4258 17.1992 83.4034 17.1992 79.6875C17.1992 78.5545 18.117 77.6367 19.25 77.6367C20.383 77.6367 21.3008 78.5545 21.3008 79.6875C21.3008 81.1409 22.4841 82.3242 23.9375 82.3242H46.9767C48.1097 82.3242 49.0275 83.242 49.0275 84.375C49.0275 85.508 48.1097 86.4258 46.9767 86.4258ZM127.062 86.4258H104.023C102.89 86.4258 101.972 85.508 101.972 84.375C101.972 83.242 102.89 82.3242 104.023 82.3242H127.062C128.516 82.3242 129.699 81.1409 129.699 79.6875C129.699 78.5545 130.617 77.6367 131.75 77.6367C132.883 77.6367 133.801 78.5545 133.801 79.6875C133.801 83.4034 130.778 86.4258 127.062 86.4258ZM38 95.8008H23.9375C20.2216 95.8008 17.1992 92.7784 17.1992 89.0625C17.1992 87.9295 18.117 87.0117 19.25 87.0117C20.383 87.0117 21.3008 87.9295 21.3008 89.0625C21.3008 90.5159 22.4841 91.6992 23.9375 91.6992H38C39.133 91.6992 40.0508 92.617 40.0508 93.75C40.0508 94.883 39.133 95.8008 38 95.8008ZM127.062 95.8008H104.023C102.89 95.8008 101.972 94.883 101.972 93.75C101.972 92.617 102.89 91.6992 104.023 91.6992H127.062C128.516 91.6992 129.699 90.5159 129.699 89.0625C129.699 87.9295 130.617 87.0117 131.75 87.0117C132.883 87.0117 133.801 87.9295 133.801 89.0625C133.801 92.7784 130.778 95.8008 127.062 95.8008ZM51.6402 77.0508H23.9375C20.2216 77.0508 17.1992 74.0284 17.1992 70.3125C17.1992 69.1795 18.117 68.2617 19.25 68.2617C20.383 68.2617 21.3008 69.1795 21.3008 70.3125C21.3008 71.7659 22.4841 72.9492 23.9375 72.9492H51.6402C52.7732 72.9492 53.691 73.867 53.691 75C53.691 76.133 52.7732 77.0508 51.6402 77.0508ZM127.062 77.0508H108.312C107.18 77.0508 106.262 76.133 106.262 75C106.262 73.867 107.18 72.9492 108.312 72.9492H127.062C128.516 72.9492 129.699 71.7659 129.699 70.3125C129.699 69.1795 130.617 68.2617 131.75 68.2617C132.883 68.2617 133.801 69.1795 133.801 70.3125C133.801 74.0284 130.778 77.0508 127.062 77.0508Z" fill="black"/>
<path d="M51.6402 105.176H23.9375C20.2216 105.176 17.1992 102.153 17.1992 98.4375V16.4062C17.1992 12.6904 20.2216 9.66797 23.9375 9.66797H40.3438C41.4767 9.66797 42.3945 10.5858 42.3945 11.7188C42.3945 12.8517 41.4767 13.7695 40.3438 13.7695H23.9375C22.4841 13.7695 21.3008 14.9528 21.3008 16.4062V98.4375C21.3008 99.8909 22.4841 101.074 23.9375 101.074H51.6402C52.7732 101.074 53.691 101.992 53.691 103.125C53.691 104.258 52.7732 105.176 51.6402 105.176ZM127.062 105.176H99.3598C98.2268 105.176 97.309 104.258 97.309 103.125C97.309 101.992 98.2268 101.074 99.3598 101.074H127.062C128.516 101.074 129.699 99.8909 129.699 98.4375V16.4062C129.699 14.9528 128.516 13.7695 127.062 13.7695H52.0614C50.9284 13.7695 50.0106 12.8517 50.0106 11.7188C50.0106 10.5858 50.9284 9.66797 52.0614 9.66797H127.062C130.778 9.66797 133.801 12.6904 133.801 16.4062V98.4375C133.801 102.153 130.778 105.176 127.062 105.176Z" fill="black"/>
<path d="M62.0703 64.7232C60.9373 64.7232 60.0195 63.8054 60.0195 62.6724V11.7187C60.0195 10.5858 60.9373 9.66797 62.0703 9.66797C63.2033 9.66797 64.1211 10.5858 64.1211 11.7187V62.6724C64.1211 63.8054 63.2033 64.7232 62.0703 64.7232ZM88.9296 64.7232C87.7966 64.7232 86.8788 63.8054 86.8788 62.6724V11.7187C86.8788 10.5858 87.7966 9.66797 88.9296 9.66797C90.0626 9.66797 90.9804 10.5858 90.9804 11.7187V62.6724C90.9804 63.8054 90.0626 64.7232 88.9296 64.7232ZM59.7037 140.332C58.9174 140.332 58.1679 139.879 57.828 139.113L53.6955 129.809L43.6179 131.173C42.8408 131.275 42.0867 130.936 41.6483 130.297C41.2112 129.655 41.1734 128.822 41.5522 128.143L52.9665 107.658C53.5147 106.667 54.7633 106.31 55.7555 106.865C56.7454 107.415 57.1002 108.665 56.5486 109.654L47.1301 126.559L54.6706 125.538C55.5632 125.416 56.4479 125.906 56.8198 126.739L61.5771 137.449C62.036 138.484 61.5702 139.696 60.5346 140.156C60.2645 140.276 59.9817 140.332 59.7037 140.332ZM64.9359 130.957C64.5983 130.957 64.255 130.873 63.938 130.697C62.9492 130.144 62.5956 128.895 63.1472 127.906L70.0057 115.624C70.5584 114.635 71.8012 114.278 72.7969 114.833C73.7857 115.386 74.1393 116.636 73.5877 117.625L66.7292 129.906C66.3538 130.578 65.6558 130.957 64.9359 130.957ZM91.2974 140.332C90.5569 140.332 89.8703 139.931 89.5064 139.281L77.4122 117.625C76.8606 116.636 77.2143 115.386 78.203 114.833C79.1975 114.281 80.4403 114.638 80.9942 115.624L91.0879 133.7L94.1801 126.739C94.5509 125.906 95.431 125.416 96.3293 125.538L103.87 126.559L94.4514 109.654C93.8998 108.665 94.2545 107.415 95.2444 106.865C96.2344 106.312 97.4829 106.667 98.0334 107.658L109.448 128.143C109.827 128.822 109.789 129.655 109.352 130.297C108.914 130.939 108.145 131.277 107.382 131.173L97.3044 129.809L93.1719 139.113C92.8561 139.824 92.1672 140.294 91.3912 140.33C91.3592 140.331 91.3283 140.332 91.2974 140.332Z" fill="black"/>
<path d="M75.4999 121.163C75.0993 121.163 74.6999 121.046 74.3532 120.813L69.0672 117.248L62.7569 118.166C61.9295 118.29 61.1135 117.892 60.6912 117.171L57.4743 111.666L51.3906 109.756C50.593 109.505 50.0276 108.796 49.9613 107.962L49.4531 101.606L44.8011 97.2462C44.1912 96.674 43.9886 95.7894 44.2907 95.01L46.5899 89.0625L44.2907 83.115C43.9886 82.3357 44.1912 81.451 44.8011 80.8788L49.4531 76.5186L49.9613 70.1626C50.0276 69.3295 50.593 68.62 51.3906 68.3693L57.4743 66.4593L60.6912 60.9535C61.1124 60.2326 61.9226 59.8263 62.7569 59.959L69.0672 60.8769L74.3532 57.312C75.0467 56.8451 75.9531 56.8451 76.6466 57.312L81.9326 60.8769L88.2429 59.959C89.076 59.8332 89.8885 60.2337 90.3085 60.9535L93.5255 66.4593L99.6092 68.3693C100.407 68.6199 100.972 69.3295 101.039 70.1626L101.547 76.5186L106.199 80.8788C106.809 81.451 107.011 82.3357 106.709 83.115L104.41 89.0625L106.709 95.01C107.011 95.7894 106.809 96.674 106.199 97.2462L101.547 101.606L101.039 107.962C100.972 108.796 100.407 109.505 99.6092 109.756L93.5255 111.666L90.3085 117.171C89.8874 117.891 89.068 118.293 88.2429 118.166L81.9326 117.248L76.6466 120.813C76.2998 121.046 75.9004 121.163 75.4999 121.163ZM69.5558 113.054C69.9621 113.054 70.3615 113.175 70.7025 113.404L75.4999 116.639L80.2973 113.404C80.7196 113.119 81.2334 112.999 81.7392 113.076L87.4647 113.909L90.3841 108.912C90.6416 108.472 91.0536 108.143 91.54 107.99L97.0606 106.256L97.5218 100.488C97.5618 99.9801 97.7907 99.5041 98.1638 99.155L102.386 95.1988L100.299 89.8018C100.115 89.3257 100.115 88.7993 100.299 88.3232L102.386 82.9262L98.1638 78.97C97.7907 78.6209 97.5618 78.1448 97.5218 77.6367L97.0606 71.8689L91.54 70.1351C91.0536 69.9817 90.6416 69.6533 90.3841 69.2127L87.4647 64.2162L81.7392 65.0493C81.2357 65.126 80.7207 65.0047 80.2973 64.7209L75.4999 61.4856L70.7025 64.7209C70.2791 65.0047 69.7607 65.1249 69.2606 65.0493L63.5351 64.2162L60.6157 69.2127C60.3582 69.6533 59.9462 69.9817 59.4599 70.1351L53.9392 71.8689L53.478 77.6367C53.438 78.1448 53.2091 78.6209 52.836 78.97L48.6143 82.9262L50.7006 88.3232C50.8848 88.7993 50.8848 89.3257 50.7006 89.8018L48.6143 95.1988L52.836 99.155C53.2091 99.5041 53.438 99.9801 53.478 100.488L53.9392 106.256L59.4599 107.99C59.9462 108.143 60.3582 108.472 60.6157 108.912L63.5351 113.909L69.2606 113.076C69.359 113.061 69.4574 113.054 69.5558 113.054Z" fill="black"/>
<path d="M75.5 109.863C64.0307 109.863 54.6992 100.532 54.6992 89.0625C54.6992 77.5932 64.0307 68.2617 75.5 68.2617C86.9693 68.2617 96.3008 77.5932 96.3008 89.0625C96.3008 100.532 86.9693 109.863 75.5 109.863ZM75.5 72.3633C66.2921 72.3633 58.8008 79.8546 58.8008 89.0625C58.8008 98.2704 66.2921 105.762 75.5 105.762C84.7079 105.762 92.1992 98.2704 92.1992 89.0625C92.1992 79.8546 84.7079 72.3633 75.5 72.3633Z" fill="black"/>
<path d="M84.875 91.1133C83.742 91.1133 82.8242 90.1955 82.8242 89.0625C82.8242 85.0239 79.5386 81.7383 75.5 81.7383C74.367 81.7383 73.4492 80.8205 73.4492 79.6875C73.4492 78.5545 74.367 77.6367 75.5 77.6367C81.8 77.6367 86.9258 82.7625 86.9258 89.0625C86.9258 90.1955 86.008 91.1133 84.875 91.1133ZM75.5 100.488C69.2 100.488 64.0742 95.3625 64.0742 89.0625C64.0742 87.9295 64.992 87.0117 66.125 87.0117C67.258 87.0117 68.1758 87.9295 68.1758 89.0625C68.1758 93.1011 71.4614 96.3867 75.5 96.3867C76.633 96.3867 77.5508 97.3045 77.5508 98.4375C77.5508 99.5705 76.633 100.488 75.5 100.488Z" fill="black"/>
</svg>
